<svg height="980pt" viewBox="160 90 660 799.6" width="980pt" xmlns="http://www.w3.org/2000/svg"><path d="m493.7 92.2c-.3.7-9 22.2-19.5 47.8-25.9 63.5-44.6 109.6-59.7 147-17 42.2-47.9 118-55.3 136-3.3 8-10.4 25.3-15.7 38.5-17.5 43.4-28.4 62-47.1 80.9-22.2 22.4-50.4 32.6-78 28.3-14.6-2.4-32.2-8.7-43.1-15.7-1.2-.8-2.5-1.1-2.9-.8-.3.4.9 4.4 2.6 9 17.5 45.3 18.7 90.3 3.5 132.4l-3.5 9.6 2.8-.6c27-5.7 43-1.3 64.3 17.8 5.6 5 14.1 12.4 18.8 16.4 32.2 27.5 76.6 52.1 122.3 67.7 25 8.6 58.5 16.8 73.1 18.1 5.6.4 4.5-.1-10.8-4.9-71-22.3-113.9-56.1-126.5-99.8-3.2-10.7-3.8-31.5-1.5-44.5 2.1-11.8 3.4-15.8 17.3-54.9 40.7-114.6 71.4-199 140.5-387.4 2.3-6.2 4.6-11.3 5.2-11.3.9 0 17.7 39.6 80.5 190.2 36.7 88.1 66 158 87 208 16.7 39.7 19 46 21.5 59.1 2 10.8 2 31.8-.1 41.2-2 9.1-9.7 25.3-16.2 33.7-4.7 6.2-15.3 17.1-21.7 22.3-22.2 18-60.4 35.5-99.1 45.4-15.8 4-9.7 4 10.1-.1 31.6-6.5 55.9-14 85-26.1 45.6-18.9 77.7-38.7 107.2-66.2 12.9-12 17.5-15.5 26-19.7 15.5-7.7 26.4-9 45.1-5 4.1.8 4.1-.1.3-11-7.5-21.2-11-48.6-9.2-72.1 1.4-18.3 4.4-32.5 10.7-51.3 3.1-9 5.3-16.6 5.1-16.9-.3-.2-3.6.5-7.4 1.5-18.8 5.5-43.7 7.7-60.4 5.3-22.6-3.3-42.3-13.5-59.9-31.1-12.4-12.4-21.2-25-30.4-43.5-6.4-12.8-47.6-114.6-152.8-378-6.3-15.8-7.2-17.5-8.1-15.3z"/><path d="m160 719.6c0 .5 4.2 5.8 9.2 11.9 30.8 36.7 77.6 76.7 118.9 101.6 49.5 29.7 99.6 47.4 154.2 54.4 14 1.8 75.3 2.1 91.8.5 89.1-8.8 176.3-53.2 250.4-127.5 15.5-15.5 35.5-38 35.5-40 0-.3-7.8 7.2-17.2 16.7-42.4 42.6-88.4 74-141.5 96.7-24.3 10.3-45.5 16.4-67.8 19.5-56 7.8-90.2-3.6-101.4-33.7-1.1-2.9-3.1-2.8-3.1.1 0 .9-.9 3.6-2 5.9-6.7 14.8-23.9 24.9-49.2 28.9-12.6 2-40.5 1.4-54.3-1.1-29.9-5.4-56.4-14.4-84.5-28.5-43.5-21.7-80.4-48.7-120.2-87.9-10.4-10.1-18.8-18-18.8-17.5z"/></svg>