<?xml version="1.0" encoding="utf-8"?>
<!-- Generator: Adobe Illustrator 26.5.0, SVG Export Plug-In . SVG Version: 6.00 Build 0)  -->
<svg version="1.1" id="Capa_1" xmlns="http://www.w3.org/2000/svg" xmlns:xlink="http://www.w3.org/1999/xlink" x="0px" y="0px"
	 viewBox="0 0 612 792" style="enable-background:new 0 0 612 792;" xml:space="preserve">
<style type="text/css">
	.st0{fill:#FE0232;}
</style>
<path class="st0" d="M576,156.63c-12.74,8.53-34.02,22.79-51.32,34.39c-12.48,8.36-22.89,15.33-26.52,17.77
	c-0.15,0.1-0.29,0.19-0.41,0.27c-0.63,0.42-0.97,0.65-0.97,0.65l-31.99,21.19l-90.33,59.85l26.79-45.5
	c3.74-6.34-0.84-14.35-8.21-14.35H226.88c-16.18,0-31.15,8.56-39.36,22.5L83.86,429.46c-0.61,1.04-1.21,2.06-1.81,3.08
	c-33.95,58.16-37.56,79.32-37.94,82.67l-17.17,10.91l-51.6,32.78L-234,691.86l80.36-132.96l198.24-328l71.28-117.95
	c3.19-10.61-3.78-12.82-3.78-12.82h374.6c0,0,5,0.05,12.59,0.35c20.7,0.83,59.11,3.75,71.24,12.55
	C585.84,124.14,600.2,140.43,576,156.63z"/>
<polygon class="st0" points="750.29,100.64 616.04,230.9 552.14,292.9 398.79,558.91 58.58,558.91 317.61,387.3 553.67,230.9 
	609.02,194.24 "/>
</svg>
